<svg width="200" height="45" viewBox="0 0 200 45" fill="none" xmlns="http://www.w3.org/2000/svg">
<rect width="200" height="44.5" rx="20" fill="#59191F"/>
<path d="M49.976 22.528C51.288 22.288 52.536 22.168 53.72 22.168C54.92 22.168 56.016 22.272 57.008 22.48C57.344 21.84 57.512 21.28 57.512 20.8C57.512 19.792 56.848 19.288 55.52 19.288C54.384 19.288 53.32 19.6 52.328 20.224C51.352 20.832 50.568 21.6 49.976 22.528ZM51.128 27.976C51.72 28.2 52.456 28.312 53.336 28.312C55.656 28.312 58.112 27.176 60.704 24.904C59.936 24.04 58.888 23.4 57.56 22.984C57 23.992 56.152 24.952 55.016 25.864C53.88 26.776 52.584 27.48 51.128 27.976ZM48.728 25.288C48.728 24.504 48.944 23.712 49.376 22.912C47.776 23.312 46.496 23.888 45.536 24.64C44.576 25.376 44.096 26.088 44.096 26.776C44.096 27.256 44.352 27.648 44.864 27.952C45.392 28.24 46.144 28.384 47.12 28.384C48.112 28.384 49.112 28.232 50.12 27.928C49.192 27.32 48.728 26.44 48.728 25.288ZM56.84 22.768C55.8 22.528 54.68 22.408 53.48 22.408C52.296 22.408 51.064 22.544 49.784 22.816C49.32 23.616 49.088 24.416 49.088 25.216C49.088 26.368 49.592 27.216 50.6 27.76C51.944 27.264 53.176 26.552 54.296 25.624C55.416 24.696 56.264 23.744 56.84 22.768ZM58.4 15.016L58.424 15.424H58.76C60.2 15.424 61.584 15.224 62.912 14.824C64.256 14.408 65.368 13.896 66.248 13.288C67.128 12.68 67.824 12.04 68.336 11.368C68.864 10.68 69.128 10.064 69.128 9.52C69.128 8.976 68.896 8.552 68.432 8.248C67.984 7.928 67.312 7.768 66.416 7.768C65.056 7.768 63.744 8.168 62.48 8.968C61.216 9.768 60.216 10.728 59.48 11.848C58.76 12.968 58.4 14.024 58.4 15.016ZM62.312 4.12L62.384 4.408C59.888 4.76 57.8 5.712 56.12 7.264C54.456 8.8 53.624 10.352 53.624 11.92C53.624 12.848 53.96 13.624 54.632 14.248C55.304 14.856 56.312 15.232 57.656 15.376C57.624 15.088 57.608 14.864 57.608 14.704C57.608 13.904 57.832 13.08 58.28 12.232C58.728 11.368 59.336 10.576 60.104 9.856C60.872 9.12 61.832 8.52 62.984 8.056C64.136 7.576 65.272 7.336 66.392 7.336C67.528 7.336 68.336 7.52 68.816 7.888C69.312 8.24 69.56 8.728 69.56 9.352C69.56 9.976 69.296 10.656 68.768 11.392C68.24 12.112 67.52 12.8 66.608 13.456C65.696 14.112 64.528 14.656 63.104 15.088C61.696 15.52 60.2 15.736 58.616 15.736H58.472C58.824 17.096 60 17.776 62 17.776C63.024 17.776 64.248 17.472 65.672 16.864C67.096 16.256 68.56 15.328 70.064 14.08L70.208 14.272C69.728 14.688 69.12 15.152 68.384 15.664C67.648 16.16 66.64 16.68 65.36 17.224C64.08 17.768 62.92 18.04 61.88 18.04C59.576 18.04 58.2 17.264 57.752 15.712C56.264 15.6 55.136 15.208 54.368 14.536C53.616 13.864 53.24 13.024 53.24 12.016C53.24 10.4 54.088 8.792 55.784 7.192C57.496 5.592 59.672 4.568 62.312 4.12ZM90.008 12.28C90.008 11.528 89.8 10.96 89.384 10.576C88.968 10.176 88.312 9.976 87.416 9.976C86.52 9.976 85.544 10.16 84.488 10.528C83.448 10.896 82.464 11.344 81.536 11.872C80.608 12.4 79.584 13.112 78.464 14.008C77.36 14.904 76.4 15.72 75.584 16.456C74.784 17.192 73.856 18.112 72.8 19.216C71.744 20.32 70.936 21.192 70.376 21.832C69.816 22.472 69.088 23.312 68.192 24.352C67.296 25.376 66.736 26.016 66.512 26.272L65.168 28.024C65.088 28.072 65.016 28.096 64.952 28.096C64.888 28.096 64.856 28.048 64.856 27.952L65.144 27.448C65.368 27.16 65.872 26.176 66.656 24.496L67.064 23.656C68.296 21.064 69.224 19.264 69.848 18.256C72.04 14.688 74.064 12.064 75.92 10.384C75.648 10.384 74.912 10.944 73.712 12.064L73.112 12.64C68.136 18.096 64.216 22.12 61.352 24.712C62.168 25.576 62.576 26.504 62.576 27.496C62.576 28.728 61.92 29.848 60.608 30.856C59.312 31.88 57.392 32.584 54.848 32.968V32.704C57.072 32.352 58.776 31.68 59.96 30.688C61.144 29.712 61.736 28.624 61.736 27.424C61.736 26.624 61.456 25.856 60.896 25.12C59.6 26.24 58.336 27.104 57.104 27.712C55.872 28.32 54.64 28.624 53.408 28.624C52.176 28.624 51.224 28.464 50.552 28.144C49.384 28.48 48.232 28.648 47.096 28.648C45.96 28.648 45.088 28.464 44.48 28.096C43.872 27.744 43.568 27.288 43.568 26.728C43.568 25.96 44.096 25.184 45.152 24.4C46.208 23.6 47.672 23 49.544 22.6C50.168 21.56 51.032 20.696 52.136 20.008C53.256 19.304 54.48 18.952 55.808 18.952C56.624 18.952 57.232 19.128 57.632 19.48C58.032 19.816 58.232 20.272 58.232 20.848C58.232 21.424 58.064 22.032 57.728 22.672C59.184 23.104 60.32 23.72 61.136 24.52C61.264 24.392 61.704 23.984 62.456 23.296C63.208 22.608 64.504 21.304 66.344 19.384C68.2 17.464 69.744 15.824 70.976 14.464L72.848 12.448C74.896 10.448 76.648 9.288 78.104 8.968C78.28 8.968 78.368 9.016 78.368 9.112C78.368 9.192 78.32 9.248 78.224 9.28C77.488 9.504 76.792 10.008 76.136 10.792C75.496 11.56 74.704 12.616 73.76 13.96C72.832 15.304 72.032 16.552 71.36 17.704C69.728 20.456 68.704 22.272 68.288 23.152L68.096 23.608C68.096 23.624 68.12 23.632 68.168 23.632L68.48 23.392C68.816 23.04 69.328 22.488 70.016 21.736C70.72 20.984 71.288 20.384 71.72 19.936C72.152 19.472 72.728 18.872 73.448 18.136C74.184 17.384 74.808 16.768 75.32 16.288C75.848 15.808 76.48 15.248 77.216 14.608C77.968 13.968 78.64 13.44 79.232 13.024C79.84 12.608 80.512 12.176 81.248 11.728C82 11.264 82.704 10.904 83.36 10.648C84.896 10.056 86.24 9.76 87.392 9.76C88.544 9.76 89.376 10.016 89.888 10.528C90.4 11.04 90.656 11.744 90.656 12.64C90.656 13.52 90.152 14.512 89.144 15.616C88.136 16.704 86.96 17.6 85.616 18.304C84.288 19.008 83.136 19.36 82.16 19.36C81.008 19.36 80.432 18.816 80.432 17.728C80.432 16.976 80.784 16.216 81.488 15.448C82.192 14.664 83.128 14.128 84.296 13.84L84.368 14.08C83.264 14.416 82.392 14.928 81.752 15.616C81.112 16.304 80.792 16.984 80.792 17.656C80.792 18.584 81.216 19.048 82.064 19.048C82.912 19.048 83.968 18.664 85.232 17.896C86.496 17.112 87.608 16.168 88.568 15.064C89.528 13.944 90.008 13.016 90.008 12.28ZM70.1992 28.048C70.8072 28.048 71.6152 27.744 72.6232 27.136C73.6472 26.512 74.4952 25.912 75.1672 25.336C75.8552 24.76 76.1992 24.424 76.1992 24.328C76.1992 24.232 76.0792 24.152 75.8392 24.088C75.6152 24.024 75.3032 23.992 74.9032 23.992C74.5032 23.992 73.9752 24.152 73.3192 24.472C72.6632 24.776 72.0952 25.144 71.6152 25.576C71.1352 26.008 70.7352 26.432 70.4152 26.848C70.0952 27.264 69.9352 27.568 69.9352 27.76C69.9352 27.952 70.0232 28.048 70.1992 28.048ZM76.6312 24.016C76.9512 23.76 77.1272 23.632 77.1592 23.632C77.5912 23.68 77.8152 23.72 77.8312 23.752C77.8472 23.768 77.8552 23.792 77.8552 23.824C77.8552 23.856 77.7912 23.96 77.6632 24.136C77.5352 24.296 77.1592 24.688 76.5352 25.312C74.9832 26.832 74.2072 27.752 74.2072 28.072C74.2072 28.2 74.2632 28.264 74.3752 28.264C75.1432 28.264 76.5832 27.536 78.6952 26.08L78.7432 26.44C76.6152 27.832 75.1112 28.528 74.2312 28.528C73.7992 28.528 73.5832 28.328 73.5832 27.928C73.5832 27.512 73.8312 26.976 74.3272 26.32C72.4392 27.712 70.9672 28.416 69.9112 28.432C69.5272 28.432 69.3352 28.2 69.3352 27.736C69.3352 26.904 69.8632 26.016 70.9192 25.072C71.9912 24.128 73.3992 23.656 75.1432 23.656C75.7192 23.656 76.2152 23.776 76.6312 24.016ZM89.6242 16.336C89.6242 16.4 89.5362 16.52 89.3602 16.696C89.1842 16.856 88.8642 17.152 88.4002 17.584C87.9522 18 87.4082 18.504 86.7682 19.096C86.1282 19.688 85.5922 20.184 85.1602 20.584H89.1682C89.2162 20.584 89.2402 20.616 89.2402 20.68C89.2402 20.872 89.1682 20.968 89.0242 20.968H84.7522C80.6242 24.872 78.5602 27.184 78.5602 27.904C78.5602 28.08 78.6722 28.168 78.8962 28.168C79.2802 28.168 80.4002 27.584 82.2562 26.416C82.5762 26.224 82.7682 26.112 82.8322 26.08L82.8802 26.44C80.7042 27.88 79.1602 28.6 78.2482 28.6C77.7682 28.6 77.5282 28.424 77.5282 28.072C77.5282 27.576 77.9042 26.904 78.6562 26.056C79.6482 24.872 81.3042 23.184 83.6242 20.992H79.4962C79.2722 20.992 79.1602 20.928 79.1602 20.8C79.1602 20.656 79.2242 20.584 79.3522 20.584H84.0322L88.8322 16.168C88.9122 16.104 89.0642 16.08 89.2882 16.096C89.5122 16.112 89.6242 16.192 89.6242 16.336ZM82.9492 28.048C83.5572 28.048 84.3652 27.744 85.3732 27.136C86.3972 26.512 87.2452 25.912 87.9172 25.336C88.6052 24.76 88.9492 24.424 88.9492 24.328C88.9492 24.232 88.8292 24.152 88.5892 24.088C88.3652 24.024 88.0532 23.992 87.6532 23.992C87.2532 23.992 86.7252 24.152 86.0692 24.472C85.4132 24.776 84.8452 25.144 84.3652 25.576C83.8852 26.008 83.4852 26.432 83.1652 26.848C82.8452 27.264 82.6852 27.568 82.6852 27.76C82.6852 27.952 82.7732 28.048 82.9492 28.048ZM89.3812 24.016C89.7012 23.76 89.8772 23.632 89.9092 23.632C90.3412 23.68 90.5652 23.72 90.5812 23.752C90.5972 23.768 90.6052 23.792 90.6052 23.824C90.6052 23.856 90.5412 23.96 90.4132 24.136C90.2852 24.296 89.9092 24.688 89.2852 25.312C87.7332 26.832 86.9572 27.752 86.9572 28.072C86.9572 28.2 87.0132 28.264 87.1252 28.264C87.8932 28.264 89.3332 27.536 91.4452 26.08L91.4932 26.44C89.3652 27.832 87.8612 28.528 86.9812 28.528C86.5492 28.528 86.3332 28.328 86.3332 27.928C86.3332 27.512 86.5812 26.976 87.0772 26.32C85.1892 27.712 83.7172 28.416 82.6612 28.432C82.2772 28.432 82.0852 28.2 82.0852 27.736C82.0852 26.904 82.6132 26.016 83.6692 25.072C84.7412 24.128 86.1492 23.656 87.8932 23.656C88.4692 23.656 88.9652 23.776 89.3812 24.016ZM105.59 14.152C104.79 14.152 102.918 15.44 99.9742 18.016C97.0302 20.592 94.6462 22.96 92.8222 25.12C94.9502 23.664 97.6302 21.616 100.862 18.976C104.094 16.32 105.71 14.736 105.71 14.224C105.71 14.176 105.67 14.152 105.59 14.152ZM92.1022 26.008C91.4622 26.856 91.1422 27.432 91.1422 27.736C91.1422 28.024 91.2782 28.168 91.5502 28.168C92.3022 28.168 93.6782 27.472 95.6782 26.08L95.7262 26.44C93.5982 27.832 92.0942 28.528 91.2142 28.528C90.7822 28.528 90.5662 28.328 90.5662 27.928C90.5662 27.048 91.5902 25.464 93.6382 23.176C95.7022 20.872 97.9742 18.744 100.454 16.792C102.95 14.824 104.718 13.84 105.758 13.84C105.95 13.84 106.046 13.912 106.046 14.056C106.046 14.44 105.654 15.048 104.87 15.88C104.102 16.696 103.062 17.632 101.75 18.688C100.438 19.744 99.2142 20.704 98.0782 21.568C96.9422 22.432 95.7102 23.352 94.3822 24.328C93.0542 25.288 92.2942 25.848 92.1022 26.008ZM100.569 21.664C100.569 21.888 100.441 22.104 100.185 22.312C99.9289 22.52 99.6889 22.624 99.4649 22.624C99.2569 22.624 99.1529 22.536 99.1529 22.36C99.1529 22.184 99.2809 21.984 99.5369 21.76C99.7929 21.52 100.025 21.4 100.233 21.4C100.457 21.4 100.569 21.488 100.569 21.664ZM98.5289 24.256C96.3689 26.208 95.2889 27.432 95.2889 27.928C95.2889 28.088 95.4009 28.168 95.6249 28.168C95.8329 28.168 96.1529 28.072 96.5849 27.88C97.0169 27.688 97.4009 27.496 97.7369 27.304C98.0729 27.096 98.4729 26.848 98.9369 26.56C99.4169 26.256 99.6729 26.096 99.7049 26.08L99.7529 26.44C99.0169 26.92 98.1769 27.4 97.2329 27.88C96.2889 28.36 95.5769 28.6 95.0969 28.6C94.6009 28.6 94.3529 28.4 94.3529 28C94.3529 27.664 94.6409 27.16 95.2169 26.488C95.7929 25.8 96.3689 25.2 96.9449 24.688L97.8089 23.92C97.8889 23.856 98.0409 23.832 98.2649 23.848C98.4889 23.864 98.6009 23.944 98.6009 24.088C98.6009 24.152 98.5769 24.208 98.5289 24.256ZM104.6 21.664C104.6 21.888 104.472 22.104 104.216 22.312C103.96 22.52 103.72 22.624 103.496 22.624C103.288 22.624 103.184 22.536 103.184 22.36C103.184 22.184 103.312 21.984 103.568 21.76C103.824 21.52 104.056 21.4 104.264 21.4C104.488 21.4 104.6 21.488 104.6 21.664ZM102.56 24.256C100.4 26.208 99.3202 27.432 99.3202 27.928C99.3202 28.088 99.4322 28.168 99.6562 28.168C99.8642 28.168 100.184 28.072 100.616 27.88C101.048 27.688 101.432 27.496 101.768 27.304C102.104 27.096 102.504 26.848 102.968 26.56C103.448 26.256 103.704 26.096 103.736 26.08L103.784 26.44C103.048 26.92 102.208 27.4 101.264 27.88C100.32 28.36 99.6082 28.6 99.1282 28.6C98.6322 28.6 98.3842 28.4 98.3842 28C98.3842 27.664 98.6722 27.16 99.2482 26.488C99.8242 25.8 100.4 25.2 100.976 24.688L101.84 23.92C101.92 23.856 102.072 23.832 102.296 23.848C102.52 23.864 102.632 23.944 102.632 24.088C102.632 24.152 102.608 24.208 102.56 24.256ZM103.855 28.048C104.463 28.048 105.271 27.744 106.279 27.136C107.303 26.512 108.151 25.912 108.823 25.336C109.511 24.76 109.855 24.424 109.855 24.328C109.855 24.232 109.735 24.152 109.495 24.088C109.271 24.024 108.959 23.992 108.559 23.992C108.159 23.992 107.631 24.152 106.975 24.472C106.319 24.776 105.751 25.144 105.271 25.576C104.791 26.008 104.391 26.432 104.071 26.848C103.751 27.264 103.591 27.568 103.591 27.76C103.591 27.952 103.679 28.048 103.855 28.048ZM110.287 24.016C110.607 23.76 110.783 23.632 110.815 23.632C111.247 23.68 111.471 23.72 111.487 23.752C111.503 23.768 111.511 23.792 111.511 23.824C111.511 23.856 111.447 23.96 111.319 24.136C111.191 24.296 110.815 24.688 110.191 25.312C108.639 26.832 107.863 27.752 107.863 28.072C107.863 28.2 107.919 28.264 108.031 28.264C108.799 28.264 110.239 27.536 112.351 26.08L112.399 26.44C110.271 27.832 108.767 28.528 107.887 28.528C107.455 28.528 107.239 28.328 107.239 27.928C107.239 27.512 107.487 26.976 107.983 26.32C106.095 27.712 104.623 28.416 103.567 28.432C103.183 28.432 102.991 28.2 102.991 27.736C102.991 26.904 103.519 26.016 104.575 25.072C105.647 24.128 107.055 23.656 108.799 23.656C109.375 23.656 109.871 23.776 110.287 24.016ZM139.73 18.976C140.146 18.928 140.474 18.848 140.714 18.736C140.97 18.608 141.098 18.472 141.098 18.328C141.098 18.184 140.954 18.08 140.666 18.016C140.586 18.096 140.442 18.248 140.234 18.472C140.026 18.696 139.858 18.864 139.73 18.976ZM138.218 19L139.274 17.968C138.33 17.984 137.338 18.104 136.298 18.328C136.698 18.68 137.338 18.904 138.218 19ZM152.882 10.672C152.882 10.384 152.57 10.24 151.946 10.24C150.394 10.24 148.754 10.848 147.026 12.064C148.962 11.936 150.29 11.816 151.01 11.704C152.258 11.496 152.882 11.152 152.882 10.672ZM145.346 12.616C142.162 12.888 139.97 13.256 138.77 13.72C137.394 14.248 136.498 14.88 136.082 15.616C135.842 16.048 135.722 16.496 135.722 16.96C135.722 17.424 135.826 17.792 136.034 18.064C137.218 17.776 138.418 17.624 139.634 17.608C141.986 15.32 143.89 13.656 145.346 12.616ZM137.858 19.336C136.898 19.24 136.186 18.952 135.722 18.472C133.434 19.096 131.602 20.128 130.226 21.568C128.866 22.992 128.186 24.376 128.186 25.72C128.186 26.216 128.282 26.64 128.474 26.992C129.498 26.448 130.594 25.728 131.762 24.832C132.93 23.92 133.922 23.088 134.738 22.336C135.554 21.584 136.594 20.584 137.858 19.336ZM117.338 24.616C117.338 24.776 117.282 24.92 117.17 25.048C117.058 25.176 116.954 25.24 116.858 25.24C116.778 25.24 116.706 25.232 116.642 25.216C116.578 25.216 116.546 25.312 116.546 25.504C116.546 26.24 116.906 26.848 117.626 27.328C118.826 28.128 120.546 28.528 122.786 28.528C124.498 28.528 126.29 28.072 128.162 27.16C127.97 26.728 127.874 26.248 127.874 25.72C127.874 24.824 128.146 23.904 128.69 22.96C129.234 22 130.098 21.08 131.282 20.2C132.466 19.304 133.866 18.632 135.482 18.184C135.274 17.88 135.17 17.488 135.17 17.008C135.17 16.528 135.282 16.064 135.506 15.616C135.746 15.168 136.05 14.784 136.418 14.464C136.802 14.144 137.29 13.864 137.882 13.624C138.474 13.368 139.058 13.168 139.634 13.024C140.21 12.864 140.898 12.72 141.698 12.592C142.69 12.448 144.122 12.304 145.994 12.16C148.234 10.672 150.338 9.928 152.306 9.928C152.658 9.928 152.898 9.976 153.026 10.072C153.17 10.152 153.242 10.336 153.242 10.624C153.242 10.912 153.074 11.176 152.738 11.416C152.402 11.64 151.89 11.824 151.202 11.968C150.002 12.192 148.434 12.376 146.498 12.52C146.482 12.52 146.466 12.52 146.45 12.52H146.426C145.434 13.256 144.258 14.312 142.898 15.688C142.466 16.136 141.834 16.792 141.002 17.656C141.45 17.752 141.674 17.928 141.674 18.184C141.674 18.424 141.466 18.656 141.05 18.88C140.65 19.088 140.106 19.232 139.418 19.312C137.498 21.28 135.706 22.944 134.042 24.304C132.394 25.648 130.658 26.72 128.834 27.52C129.602 28.16 130.522 28.48 131.594 28.48C133.242 28.48 135.274 27.68 137.69 26.08L137.738 26.44C135.418 28.056 133.354 28.864 131.546 28.864C130.906 28.864 130.33 28.76 129.818 28.552C129.322 28.36 128.978 28.16 128.786 27.952L128.498 27.664C126.514 28.464 124.522 28.864 122.522 28.864C121.37 28.864 120.13 28.688 118.802 28.336C118.05 28.128 117.434 27.792 116.954 27.328C116.49 26.864 116.258 26.296 116.258 25.624C116.258 25.24 116.322 24.944 116.45 24.736C116.594 24.512 116.738 24.384 116.882 24.352L117.074 24.328C117.25 24.344 117.338 24.44 117.338 24.616ZM144.176 26.344C144.176 26.872 144.368 27.136 144.752 27.136C145.2 27.136 145.944 26.792 146.984 26.104L147.032 26.44C145.88 27.24 145.024 27.64 144.464 27.64C143.92 27.64 143.648 27.24 143.648 26.44V26.392C141.664 27.8 140.296 28.504 139.544 28.504C139.048 28.504 138.8 28.304 138.8 27.904C138.8 27.36 139.52 26.504 140.96 25.336C141.424 24.952 141.656 24.704 141.656 24.592C141.656 24.464 141.592 24.4 141.464 24.4C141.08 24.4 139.776 25.12 137.552 26.56L137.48 26.224C139.672 24.784 141.08 24.064 141.704 24.064C142.12 24.064 142.328 24.296 142.328 24.76C142.328 25.256 141.608 26.08 140.168 27.232C139.688 27.616 139.448 27.872 139.448 28C139.448 28.08 139.552 28.12 139.76 28.12C140.528 28.12 141.872 27.368 143.792 25.864C144.032 25.272 144.456 24.672 145.064 24.064C145.688 23.456 146.224 23.152 146.672 23.152C146.832 23.152 146.912 23.2 146.912 23.296C146.912 23.488 146.656 23.84 146.144 24.352C145.632 24.848 144.992 25.384 144.224 25.96C144.192 26.056 144.176 26.184 144.176 26.344ZM147.098 28.048C147.706 28.048 148.514 27.744 149.522 27.136C150.546 26.512 151.394 25.912 152.066 25.336C152.754 24.76 153.098 24.424 153.098 24.328C153.098 24.232 152.978 24.152 152.738 24.088C152.514 24.024 152.202 23.992 151.802 23.992C151.402 23.992 150.874 24.152 150.218 24.472C149.562 24.776 148.994 25.144 148.514 25.576C148.034 26.008 147.634 26.432 147.314 26.848C146.994 27.264 146.834 27.568 146.834 27.76C146.834 27.952 146.922 28.048 147.098 28.048ZM153.53 24.016C153.85 23.76 154.026 23.632 154.058 23.632C154.49 23.68 154.714 23.72 154.73 23.752C154.746 23.768 154.754 23.792 154.754 23.824C154.754 23.856 154.69 23.96 154.562 24.136C154.434 24.296 154.058 24.688 153.434 25.312C151.882 26.832 151.106 27.752 151.106 28.072C151.106 28.2 151.162 28.264 151.274 28.264C152.042 28.264 153.482 27.536 155.594 26.08L155.642 26.44C153.514 27.832 152.01 28.528 151.13 28.528C150.698 28.528 150.482 28.328 150.482 27.928C150.482 27.512 150.73 26.976 151.226 26.32C149.338 27.712 147.866 28.416 146.81 28.432C146.426 28.432 146.234 28.2 146.234 27.736C146.234 26.904 146.762 26.016 147.818 25.072C148.89 24.128 150.298 23.656 152.042 23.656C152.618 23.656 153.114 23.776 153.53 24.016Z" fill="white"/>
</svg>
