<svg width="200" height="45" viewBox="0 0 200 45" fill="none" xmlns="http://www.w3.org/2000/svg">
<rect width="200" height="44.5" rx="20" fill="#59191F"/>
<path d="M58.28 29V15H64.32C65.88 15 67.0867 15.3133 67.94 15.94C68.8067 16.5667 69.24 17.4533 69.24 18.6C69.24 19.36 69.06 20 68.7 20.52C68.3533 21.04 67.8733 21.4333 67.26 21.7C66.66 21.9667 66 22.1 65.28 22.1L65.62 21.62C66.5133 21.62 67.28 21.76 67.92 22.04C68.5733 22.3067 69.08 22.7133 69.44 23.26C69.8 23.7933 69.98 24.46 69.98 25.26C69.98 26.4467 69.54 27.3667 68.66 28.02C67.7933 28.6733 66.48 29 64.72 29H58.28ZM59.76 27.78H64.7C65.9267 27.78 66.8667 27.5733 67.52 27.16C68.1733 26.7333 68.5 26.06 68.5 25.14C68.5 24.2333 68.1733 23.5733 67.52 23.16C66.8667 22.7333 65.9267 22.52 64.7 22.52H59.6V21.3H64.22C65.34 21.3 66.2067 21.0867 66.82 20.66C67.4467 20.2333 67.76 19.6 67.76 18.76C67.76 17.9067 67.4467 17.2733 66.82 16.86C66.2067 16.4333 65.34 16.22 64.22 16.22H59.76V27.78ZM77.3981 29.1C76.5048 29.1 75.7248 28.9333 75.0581 28.6C74.3915 28.2667 73.8715 27.7667 73.4981 27.1C73.1381 26.4333 72.9581 25.6 72.9581 24.6V18.5H74.3781V24.44C74.3781 25.56 74.6515 26.4067 75.1981 26.98C75.7581 27.54 76.5381 27.82 77.5381 27.82C78.2715 27.82 78.9048 27.6733 79.4381 27.38C79.9848 27.0733 80.3981 26.6333 80.6781 26.06C80.9715 25.4867 81.1181 24.8 81.1181 24V18.5H82.5381V29H81.1781V26.12L81.3981 26.64C81.0648 27.4133 80.5448 28.02 79.8381 28.46C79.1448 28.8867 78.3315 29.1 77.3981 29.1ZM86.5756 32.98C86.0823 32.98 85.609 32.9 85.1556 32.74C84.7156 32.58 84.3356 32.34 84.0156 32.02L84.6756 30.96C84.9423 31.2133 85.229 31.4067 85.5356 31.54C85.8556 31.6867 86.209 31.76 86.5956 31.76C87.0623 31.76 87.4623 31.6267 87.7956 31.36C88.1423 31.1067 88.469 30.6533 88.7756 30L89.4556 28.46L89.6156 28.24L93.9356 18.5H95.3356L90.0756 30.26C89.7823 30.94 89.4556 31.48 89.0956 31.88C88.749 32.28 88.369 32.56 87.9556 32.72C87.5423 32.8933 87.0823 32.98 86.5756 32.98ZM89.3756 29.3L84.5356 18.5H86.0156L90.2956 28.14L89.3756 29.3ZM107.93 18.4C108.783 18.4 109.53 18.5667 110.17 18.9C110.823 19.22 111.33 19.7133 111.69 20.38C112.063 21.0467 112.25 21.8867 112.25 22.9V29H110.83V23.04C110.83 21.9333 110.55 21.1 109.99 20.54C109.443 19.9667 108.67 19.68 107.67 19.68C106.923 19.68 106.27 19.8333 105.71 20.14C105.163 20.4333 104.737 20.8667 104.43 21.44C104.137 22 103.99 22.68 103.99 23.48V29H102.57V18.5H103.93V21.38L103.71 20.84C104.043 20.08 104.577 19.4867 105.31 19.06C106.043 18.62 106.917 18.4 107.93 18.4ZM120.365 29.1C119.352 29.1 118.439 28.8733 117.625 28.42C116.825 27.9533 116.192 27.32 115.725 26.52C115.259 25.7067 115.025 24.78 115.025 23.74C115.025 22.6867 115.259 21.76 115.725 20.96C116.192 20.16 116.825 19.5333 117.625 19.08C118.425 18.6267 119.339 18.4 120.365 18.4C121.405 18.4 122.325 18.6267 123.125 19.08C123.939 19.5333 124.572 20.16 125.025 20.96C125.492 21.76 125.725 22.6867 125.725 23.74C125.725 24.78 125.492 25.7067 125.025 26.52C124.572 27.32 123.939 27.9533 123.125 28.42C122.312 28.8733 121.392 29.1 120.365 29.1ZM120.365 27.84C121.125 27.84 121.799 27.6733 122.385 27.34C122.972 26.9933 123.432 26.5133 123.765 25.9C124.112 25.2733 124.285 24.5533 124.285 23.74C124.285 22.9133 124.112 22.1933 123.765 21.58C123.432 20.9667 122.972 20.4933 122.385 20.16C121.799 19.8133 121.132 19.64 120.385 19.64C119.639 19.64 118.972 19.8133 118.385 20.16C117.799 20.4933 117.332 20.9667 116.985 21.58C116.639 22.1933 116.465 22.9133 116.465 23.74C116.465 24.5533 116.639 25.2733 116.985 25.9C117.332 26.5133 117.799 26.9933 118.385 27.34C118.972 27.6733 119.632 27.84 120.365 27.84ZM130.472 29L126.512 18.5H127.872L131.472 28.24H130.852L134.552 18.5H135.772L139.432 28.24H138.812L142.472 18.5H143.772L139.792 29H138.452L134.932 19.84H135.352L131.812 29H130.472Z" fill="white"/>
</svg>
