<svg width="200" height="45" viewBox="0 0 200 45" fill="none" xmlns="http://www.w3.org/2000/svg">
<rect width="200" height="44.5" rx="20" fill="#59191F"/>
<path d="M32.24 22.384C31.968 23.232 31.832 23.92 31.832 24.448C31.832 24.96 31.872 25.392 31.952 25.744C33.776 24.64 35.056 23.888 35.792 23.488C34.784 22.928 33.6 22.56 32.24 22.384ZM36.248 23.776L32.168 26.392C32.824 27.8 34.32 28.504 36.656 28.504C37.12 28.504 37.648 28.448 38.24 28.336C38.352 27.952 38.408 27.608 38.408 27.304C38.408 25.896 37.688 24.72 36.248 23.776ZM43.208 23.752C43.208 23.224 43.024 22.8 42.656 22.48C42.288 22.16 41.744 22 41.024 22C39.84 22 38.392 22.504 36.68 23.512C38.392 24.6 39.248 25.936 39.248 27.52C39.248 27.728 39.224 27.92 39.176 28.096C40.392 27.696 41.368 27.072 42.104 26.224C42.84 25.376 43.208 24.552 43.208 23.752ZM29.312 14.728C30.96 14.728 32.536 14.44 34.04 13.864C35.56 13.288 36.736 12.616 37.568 11.848C38.416 11.064 38.84 10.344 38.84 9.688C38.84 8.728 37.888 8.248 35.984 8.248C34.096 8.248 32.408 8.896 30.92 10.192C29.432 11.488 28.504 12.984 28.136 14.68C28.616 14.712 29.008 14.728 29.312 14.728ZM29.768 22.216C26.872 22.216 24.64 22.664 23.072 23.56C21.504 24.456 20.72 25.456 20.72 26.56C20.72 27.216 21.016 27.76 21.608 28.192C22.216 28.624 23.056 28.84 24.128 28.84C25.84 28.84 28.144 27.984 31.04 26.272C30.8 25.744 30.68 25.128 30.68 24.424C30.68 23.704 30.776 22.984 30.968 22.264C30.456 22.232 30.056 22.216 29.768 22.216ZM33.848 20.488C35.608 20.488 37.416 20.168 39.272 19.528C41.128 18.888 42.72 18.12 44.048 17.224C45.392 16.312 46.488 15.368 47.336 14.392C48.2 13.416 48.632 12.584 48.632 11.896C48.632 10.984 47.856 10.528 46.304 10.528C44.752 10.528 43.072 11.032 41.264 12.04C39.472 13.032 37.864 14.28 36.44 15.784C35.032 17.272 33.904 18.832 33.056 20.464C33.232 20.48 33.496 20.488 33.848 20.488ZM30.344 4.6L30.416 4.96C28.624 5.264 27.112 6.048 25.88 7.312C24.648 8.576 24.032 9.872 24.032 11.2C24.032 12.048 24.328 12.784 24.92 13.408C25.528 14.016 26.448 14.416 27.68 14.608C28.096 12.8 29.096 11.208 30.68 9.832C32.28 8.456 34.136 7.768 36.248 7.768C37.24 7.768 37.984 7.936 38.48 8.272C38.992 8.592 39.248 9.024 39.248 9.568C39.248 10.768 38.264 11.976 36.296 13.192C34.344 14.392 31.952 14.992 29.12 14.992C28.64 14.992 28.288 14.984 28.064 14.968C28.016 15.304 27.992 15.632 27.992 15.952C27.992 17.008 28.296 17.928 28.904 18.712C29.528 19.48 30.472 20 31.736 20.272C32.328 19.024 33.128 17.808 34.136 16.624C35.144 15.44 36.288 14.368 37.568 13.408C38.848 12.432 40.28 11.648 41.864 11.056C43.464 10.464 45.088 10.168 46.736 10.168C48.4 10.168 49.232 10.704 49.232 11.776C49.232 12.528 48.784 13.424 47.888 14.464C47.008 15.488 45.864 16.48 44.456 17.44C43.064 18.4 41.384 19.216 39.416 19.888C37.448 20.544 35.504 20.872 33.584 20.872C33.264 20.872 33.024 20.864 32.864 20.848C32.672 21.264 32.504 21.672 32.36 22.072C33.88 22.28 35.168 22.68 36.224 23.272C38.288 22.2 40.024 21.664 41.432 21.664C42.216 21.664 42.808 21.848 43.208 22.216C43.624 22.568 43.832 23.04 43.832 23.632C43.832 24.528 43.4 25.456 42.536 26.416C41.688 27.36 40.544 28.04 39.104 28.456C38.736 29.656 37.824 30.704 36.368 31.6C34.912 32.512 33.192 32.968 31.208 32.968C30.392 32.968 29.528 32.872 28.616 32.68L28.856 32.464C29.464 32.576 30.104 32.632 30.776 32.632C32.52 32.632 34.064 32.248 35.408 31.48C36.752 30.728 37.656 29.792 38.12 28.672C37.448 28.784 36.848 28.84 36.32 28.84C33.904 28.84 32.256 28.176 31.376 26.848C28.688 28.384 26.224 29.152 23.984 29.152C22.768 29.152 21.8 28.888 21.08 28.36C20.36 27.848 20 27.216 20 26.464C20 25.28 20.848 24.224 22.544 23.296C24.256 22.368 26.728 21.904 29.96 21.904C30.216 21.904 30.584 21.92 31.064 21.952C31.24 21.44 31.4 21.016 31.544 20.68C30.184 20.392 29.168 19.832 28.496 19C27.84 18.168 27.512 17.184 27.512 16.048C27.512 15.632 27.544 15.256 27.608 14.92C26.136 14.744 25.032 14.328 24.296 13.672C23.576 13 23.216 12.2 23.216 11.272C23.216 9.896 23.888 8.544 25.232 7.216C26.592 5.872 28.296 5 30.344 4.6ZM58.2157 14.824C58.2157 14.712 58.1357 14.656 57.9757 14.656C57.3357 14.656 55.7517 15.8 53.2237 18.088C50.7117 20.376 48.4557 22.592 46.4557 24.736C48.7597 23.248 51.2957 21.352 54.0637 19.048C56.8317 16.744 58.2157 15.336 58.2157 14.824ZM47.8957 27.856C47.8957 28.064 47.9997 28.168 48.2077 28.168C48.4317 28.168 48.7597 28.072 49.1917 27.88C49.6237 27.688 50.0077 27.496 50.3437 27.304C50.6797 27.096 51.0797 26.848 51.5437 26.56C52.0237 26.256 52.2797 26.096 52.3117 26.08L52.3597 26.44C50.1997 27.88 48.6877 28.6 47.8237 28.6C47.4077 28.6 47.1997 28.392 47.1997 27.976C47.1997 27.56 47.4557 27.104 47.9677 26.608C48.4957 26.096 49.0157 25.64 49.5277 25.24C50.0557 24.84 50.3197 24.552 50.3197 24.376C50.3197 24.312 50.2637 24.28 50.1517 24.28C49.7837 24.28 48.7837 24.744 47.1517 25.672C45.5197 26.584 44.4557 27.256 43.9597 27.688L43.0957 28.408C43.0317 28.472 42.8717 28.504 42.6157 28.504C42.3597 28.504 42.2317 28.456 42.2317 28.36C42.2317 28.312 42.2637 28.248 42.3277 28.168C44.0077 26.28 45.8877 24.304 47.9677 22.24C50.0477 20.176 52.0797 18.336 54.0637 16.72C56.0637 15.088 57.4237 14.272 58.1437 14.272C58.5277 14.272 58.7197 14.392 58.7197 14.632C58.7197 15.144 57.9117 16.136 56.2957 17.608C54.6957 19.064 52.8957 20.528 50.8957 22C48.8957 23.472 47.1757 24.64 45.7357 25.504C45.1757 26.144 44.8557 26.552 44.7757 26.728C44.8397 26.728 44.8877 26.72 44.9197 26.704C45.9437 25.984 47.0077 25.344 48.1117 24.784C49.2157 24.224 49.9117 23.944 50.1997 23.944C50.4877 23.944 50.6797 24 50.7757 24.112C50.8877 24.224 50.9437 24.344 50.9437 24.472C50.9437 24.856 50.6877 25.288 50.1757 25.768C49.6797 26.248 49.1757 26.68 48.6637 27.064C48.1517 27.448 47.8957 27.712 47.8957 27.856ZM57.2101 23.968C57.2101 23.84 57.0821 23.776 56.8261 23.776C56.5701 23.776 56.0501 24.024 55.2661 24.52C54.4821 25 53.8181 25.52 53.2741 26.08C54.3461 25.904 55.2661 25.584 56.0341 25.12C56.8181 24.64 57.2101 24.256 57.2101 23.968ZM52.5061 27.352C52.5061 27.816 52.8261 28.048 53.4661 28.048C54.6821 28.048 56.1941 27.392 58.0021 26.08L58.0501 26.44C56.1621 27.768 54.5461 28.432 53.2021 28.432C52.2421 28.432 51.7621 28.032 51.7621 27.232C51.7621 26.432 52.3541 25.6 53.5381 24.736C54.7381 23.872 55.9701 23.44 57.2341 23.44C57.6341 23.44 57.8341 23.56 57.8341 23.8C57.8341 24.184 57.3861 24.648 56.4901 25.192C55.6101 25.72 54.4501 26.112 53.0101 26.368C52.6741 26.752 52.5061 27.08 52.5061 27.352ZM58.2729 27.496C58.2729 27.912 58.5689 28.12 59.1609 28.12C59.7689 28.12 60.5449 27.928 61.4889 27.544C62.4329 27.144 63.3049 26.656 64.1049 26.08L64.1529 26.44C63.3209 27.048 62.3849 27.552 61.3449 27.952C60.3209 28.352 59.4489 28.552 58.7289 28.552C57.7689 28.552 57.2889 28.2 57.2889 27.496C57.2889 26.728 57.8889 25.88 59.0889 24.952C60.2889 24.008 61.4489 23.536 62.5689 23.536C63.1129 23.536 63.3849 23.736 63.3849 24.136C63.3849 24.408 63.2809 24.664 63.0729 24.904C62.8809 25.144 62.6329 25.264 62.3289 25.264C62.0249 25.264 61.8729 25.184 61.8729 25.024C61.8729 24.864 61.9609 24.72 62.1369 24.592C62.3129 24.464 62.5049 24.4 62.7129 24.4C62.9369 24.384 63.0489 24.304 63.0489 24.16C63.0489 24.08 63.0009 24.008 62.9049 23.944C62.8089 23.864 62.6889 23.824 62.5449 23.824C61.7769 23.824 60.8729 24.288 59.8329 25.216C58.7929 26.128 58.2729 26.888 58.2729 27.496ZM77.9266 14.824C77.9266 14.712 77.8466 14.656 77.6866 14.656C77.0466 14.656 75.4626 15.8 72.9346 18.088C70.4226 20.376 68.1666 22.592 66.1666 24.736C68.4706 23.248 71.0066 21.352 73.7746 19.048C76.5426 16.744 77.9266 15.336 77.9266 14.824ZM68.4706 26.104L68.7106 26.608C68.7106 26.736 68.5346 26.968 68.1826 27.304C67.8306 27.64 67.6546 27.872 67.6546 28C67.6546 28.112 67.7906 28.168 68.0626 28.168C68.3506 28.168 68.7106 28.072 69.1426 27.88C69.5746 27.688 69.9586 27.496 70.2946 27.304C70.6306 27.096 71.0306 26.848 71.4946 26.56C71.9746 26.256 72.2306 26.096 72.2626 26.08L72.3106 26.44C71.7186 26.872 70.9266 27.344 69.9346 27.856C68.9426 28.352 68.1666 28.6 67.6066 28.6C67.0466 28.6 66.7666 28.352 66.7666 27.856C66.7666 27.632 66.9506 27.352 67.3186 27.016C67.7026 26.664 67.8946 26.448 67.8946 26.368C67.8946 26.288 67.8546 26.248 67.7746 26.248C67.4546 26.2 67.2946 26.08 67.2946 25.888C67.2946 25.824 67.3186 25.792 67.3666 25.792H67.6546C68.5506 25.792 69.3026 25.592 69.9106 25.192C70.5186 24.792 70.8226 24.44 70.8226 24.136C70.8226 24.024 70.7666 23.968 70.6546 23.968C69.4866 23.968 67.1586 25.208 63.6706 27.688L62.8066 28.408C62.7426 28.472 62.5826 28.504 62.3266 28.504C62.0706 28.504 61.9426 28.456 61.9426 28.36C61.9426 28.312 61.9746 28.248 62.0386 28.168C63.7186 26.28 65.5986 24.304 67.6786 22.24C69.7586 20.176 71.7906 18.336 73.7746 16.72C75.7746 15.088 77.1346 14.272 77.8546 14.272C78.2386 14.272 78.4306 14.392 78.4306 14.632C78.4306 15.144 77.6226 16.136 76.0066 17.608C74.4066 19.064 72.6066 20.528 70.6066 22C68.6066 23.472 66.8866 24.64 65.4466 25.504C64.9026 26.128 64.5906 26.52 64.5106 26.68C65.3586 26.088 66.0386 25.632 66.5506 25.312C67.0626 24.976 67.7346 24.616 68.5666 24.232C69.4146 23.832 70.1346 23.632 70.7266 23.632C71.3186 23.632 71.6146 23.872 71.6146 24.352C71.6146 24.832 71.2946 25.24 70.6546 25.576C70.0306 25.896 69.4146 26.056 68.8066 26.056C68.6786 26.056 68.5906 26.056 68.5426 26.056C68.4946 26.04 68.4706 26.056 68.4706 26.104ZM86.3949 14.152C85.5949 14.152 83.7229 15.44 80.7789 18.016C77.8349 20.592 75.4509 22.96 73.6269 25.12C75.7549 23.664 78.4349 21.616 81.6669 18.976C84.8989 16.32 86.5149 14.736 86.5149 14.224C86.5149 14.176 86.4749 14.152 86.3949 14.152ZM72.9069 26.008C72.2669 26.856 71.9469 27.432 71.9469 27.736C71.9469 28.024 72.0829 28.168 72.3549 28.168C73.1069 28.168 74.4829 27.472 76.4829 26.08L76.5309 26.44C74.4029 27.832 72.8989 28.528 72.0189 28.528C71.5869 28.528 71.3709 28.328 71.3709 27.928C71.3709 27.048 72.3949 25.464 74.4429 23.176C76.5069 20.872 78.7789 18.744 81.2589 16.792C83.7549 14.824 85.5229 13.84 86.5629 13.84C86.7549 13.84 86.8509 13.912 86.8509 14.056C86.8509 14.44 86.4589 15.048 85.6749 15.88C84.9069 16.696 83.8669 17.632 82.5549 18.688C81.2429 19.744 80.0189 20.704 78.8829 21.568C77.7469 22.432 76.5149 23.352 75.1869 24.328C73.8589 25.288 73.0989 25.848 72.9069 26.008ZM81.3736 21.664C81.3736 21.888 81.2456 22.104 80.9896 22.312C80.7336 22.52 80.4936 22.624 80.2696 22.624C80.0616 22.624 79.9576 22.536 79.9576 22.36C79.9576 22.184 80.0856 21.984 80.3416 21.76C80.5976 21.52 80.8296 21.4 81.0376 21.4C81.2616 21.4 81.3736 21.488 81.3736 21.664ZM79.3336 24.256C77.1736 26.208 76.0936 27.432 76.0936 27.928C76.0936 28.088 76.2056 28.168 76.4296 28.168C76.6376 28.168 76.9576 28.072 77.3896 27.88C77.8216 27.688 78.2056 27.496 78.5416 27.304C78.8776 27.096 79.2776 26.848 79.7416 26.56C80.2216 26.256 80.4776 26.096 80.5096 26.08L80.5576 26.44C79.8216 26.92 78.9816 27.4 78.0376 27.88C77.0936 28.36 76.3816 28.6 75.9016 28.6C75.4056 28.6 75.1576 28.4 75.1576 28C75.1576 27.664 75.4456 27.16 76.0216 26.488C76.5976 25.8 77.1736 25.2 77.7496 24.688L78.6136 23.92C78.6936 23.856 78.8456 23.832 79.0696 23.848C79.2936 23.864 79.4056 23.944 79.4056 24.088C79.4056 24.152 79.3816 24.208 79.3336 24.256ZM84.3969 23.176C84.4609 23.08 84.5329 23.032 84.6129 23.032C84.7089 23.032 84.7569 23.08 84.7569 23.176C84.7569 23.272 84.7089 23.368 84.6129 23.464C84.5169 23.56 84.4449 23.856 84.3969 24.352C84.3649 24.832 84.2449 25.424 84.0369 26.128C83.8289 26.816 83.4689 27.44 82.9569 28C82.9569 28.032 82.9889 28.048 83.0529 28.048C83.1649 28.048 83.5729 27.856 84.2769 27.472L84.6129 27.304C85.2209 26.968 85.8689 26.56 86.5569 26.08L86.6049 26.44C84.1089 28.056 82.1969 28.864 80.8689 28.864C80.3409 28.864 79.9569 28.752 79.7169 28.528C79.4609 28.304 79.3329 28.056 79.3329 27.784C79.3329 27.512 79.3969 27.296 79.5249 27.136C79.6529 26.96 79.8129 26.872 80.0049 26.872C80.2449 26.872 80.3649 27 80.3649 27.256C80.3649 27.416 80.2369 27.56 79.9809 27.688C79.9009 27.736 79.8609 27.816 79.8609 27.928C79.8609 28.04 79.9569 28.168 80.1489 28.312C80.3249 28.472 80.5169 28.552 80.7249 28.552C81.4289 28.552 82.0289 28.112 82.5249 27.232C83.0369 26.336 83.3649 25.448 83.5089 24.568V24.496C81.9569 25.552 80.9089 26.24 80.3649 26.56L80.2929 26.224C82.9009 24.544 84.2689 23.528 84.3969 23.176ZM97.4758 16.336C97.4758 16.4 97.3878 16.52 97.2118 16.696C97.0358 16.856 96.7158 17.152 96.2518 17.584C95.8038 18 95.2598 18.504 94.6198 19.096C93.9798 19.688 93.4438 20.184 93.0117 20.584H97.0198C97.0678 20.584 97.0918 20.616 97.0918 20.68C97.0918 20.872 97.0198 20.968 96.8758 20.968H92.6038C88.4758 24.872 86.4117 27.184 86.4117 27.904C86.4117 28.08 86.5237 28.168 86.7477 28.168C87.1318 28.168 88.2518 27.584 90.1078 26.416C90.4278 26.224 90.6198 26.112 90.6838 26.08L90.7318 26.44C88.5558 27.88 87.0117 28.6 86.0997 28.6C85.6197 28.6 85.3797 28.424 85.3797 28.072C85.3797 27.576 85.7557 26.904 86.5077 26.056C87.4998 24.872 89.1558 23.184 91.4758 20.992H87.3478C87.1238 20.992 87.0118 20.928 87.0118 20.8C87.0118 20.656 87.0758 20.584 87.2038 20.584H91.8838L96.6838 16.168C96.7638 16.104 96.9158 16.08 97.1398 16.096C97.3638 16.112 97.4758 16.192 97.4758 16.336ZM108.426 14.152C107.626 14.152 105.754 15.44 102.81 18.016C99.8661 20.592 97.4821 22.96 95.6581 25.12C97.7861 23.664 100.466 21.616 103.698 18.976C106.93 16.32 108.546 14.736 108.546 14.224C108.546 14.176 108.506 14.152 108.426 14.152ZM94.3621 28.12C95.0661 28.12 96.4101 27.328 98.3941 25.744C98.5861 25.216 98.8901 24.728 99.3061 24.28C99.7221 23.832 100.146 23.608 100.578 23.608C100.738 23.608 100.818 23.664 100.818 23.776C100.818 24.144 100.162 24.856 98.8501 25.912C98.8021 26.088 98.7781 26.232 98.7781 26.344C98.7781 26.872 98.9701 27.136 99.3541 27.136C99.8181 27.136 100.562 26.792 101.586 26.104L101.634 26.44C100.482 27.24 99.6261 27.64 99.0661 27.64C98.5221 27.64 98.2501 27.24 98.2501 26.44V26.368C96.3781 27.792 95.0101 28.504 94.1461 28.504C93.6501 28.504 93.4021 28.304 93.4021 27.904C93.4021 27.024 94.4261 25.44 96.4741 23.152C98.5381 20.848 100.81 18.72 103.29 16.768C105.786 14.816 107.554 13.84 108.594 13.84C108.786 13.84 108.882 13.912 108.882 14.056C108.882 14.44 108.49 15.048 107.706 15.88C106.938 16.696 105.898 17.632 104.586 18.688C103.274 19.744 102.05 20.704 100.914 21.568C99.7781 22.432 98.5461 23.352 97.2181 24.328C95.8901 25.288 95.1301 25.848 94.9381 26.008C94.2981 26.856 93.9781 27.456 93.9781 27.808C93.9781 28.016 94.1061 28.12 94.3621 28.12ZM95.8025 34.648C95.3705 34.984 95.0585 35.304 94.8665 35.608C94.6745 35.928 94.5785 36.264 94.5785 36.616C94.5785 36.968 94.7545 37.144 95.1065 37.144C95.9705 37.144 98.5065 35 102.715 30.712C99.8825 32.072 98.1305 32.984 97.4585 33.448C96.7705 33.912 96.2185 34.312 95.8025 34.648ZM94.9385 37.48C94.4745 37.48 94.2425 37.216 94.2425 36.688C94.2425 36.16 94.4825 35.616 94.9625 35.056C95.4425 34.512 96.1545 33.952 97.0985 33.376C98.5865 32.48 100.578 31.424 103.075 30.208C103.187 30.16 103.275 30.12 103.339 30.088C103.611 29.816 104.043 29.36 104.635 28.72C105.243 28.08 105.771 27.536 106.219 27.088C104.779 28.032 103.779 28.504 103.219 28.504C102.659 28.504 102.379 28.304 102.379 27.904C102.379 27.36 103.099 26.504 104.539 25.336C105.003 24.952 105.235 24.704 105.235 24.592C105.235 24.464 105.171 24.4 105.043 24.4C104.771 24.4 104.315 24.592 103.675 24.976C103.051 25.36 102.659 25.6 102.499 25.696C102.339 25.792 102.099 25.944 101.779 26.152C101.474 26.344 101.258 26.48 101.13 26.56L101.058 26.224C103.251 24.784 104.659 24.064 105.283 24.064C105.699 24.064 105.907 24.296 105.907 24.76C105.907 25.256 105.187 26.08 103.747 27.232C103.267 27.616 103.027 27.872 103.027 28C103.027 28.08 103.131 28.12 103.339 28.12C103.819 28.12 104.555 27.808 105.547 27.184C106.539 26.544 107.371 25.912 108.043 25.288C109.019 24.376 109.547 23.92 109.627 23.92C109.723 23.92 109.859 23.944 110.035 23.992C110.227 24.04 110.323 24.096 110.323 24.16C110.323 24.208 110.211 24.336 109.987 24.544C109.763 24.736 108.243 26.24 105.427 29.056C106.995 28.256 108.219 27.584 109.099 27.04C109.995 26.496 110.515 26.176 110.659 26.08L110.707 26.44C109.987 26.856 109.475 27.168 109.171 27.376C108.051 28.064 106.579 28.848 104.755 29.728C102.387 32.096 100.37 33.976 98.7065 35.368C97.0265 36.776 95.7705 37.48 94.9385 37.48ZM120.523 22.528C121.835 22.288 123.083 22.168 124.267 22.168C125.467 22.168 126.563 22.272 127.555 22.48C127.891 21.84 128.059 21.28 128.059 20.8C128.059 19.792 127.395 19.288 126.067 19.288C124.931 19.288 123.867 19.6 122.875 20.224C121.899 20.832 121.115 21.6 120.523 22.528ZM121.675 27.976C122.267 28.2 123.003 28.312 123.883 28.312C126.203 28.312 128.659 27.176 131.251 24.904C130.483 24.04 129.435 23.4 128.107 22.984C127.547 23.992 126.699 24.952 125.563 25.864C124.427 26.776 123.131 27.48 121.675 27.976ZM119.275 25.288C119.275 24.504 119.491 23.712 119.923 22.912C118.323 23.312 117.043 23.888 116.083 24.64C115.123 25.376 114.643 26.088 114.643 26.776C114.643 27.256 114.899 27.648 115.411 27.952C115.939 28.24 116.691 28.384 117.667 28.384C118.659 28.384 119.659 28.232 120.667 27.928C119.739 27.32 119.275 26.44 119.275 25.288ZM127.387 22.768C126.347 22.528 125.227 22.408 124.027 22.408C122.843 22.408 121.611 22.544 120.331 22.816C119.867 23.616 119.635 24.416 119.635 25.216C119.635 26.368 120.139 27.216 121.147 27.76C122.491 27.264 123.723 26.552 124.843 25.624C125.963 24.696 126.811 23.744 127.387 22.768ZM128.947 15.016L128.971 15.424H129.307C130.747 15.424 132.131 15.224 133.459 14.824C134.803 14.408 135.915 13.896 136.795 13.288C137.675 12.68 138.371 12.04 138.883 11.368C139.411 10.68 139.675 10.064 139.675 9.52C139.675 8.976 139.443 8.552 138.979 8.248C138.531 7.928 137.859 7.768 136.963 7.768C135.603 7.768 134.291 8.168 133.027 8.968C131.763 9.768 130.763 10.728 130.027 11.848C129.307 12.968 128.947 14.024 128.947 15.016ZM132.859 4.12L132.931 4.408C130.435 4.76 128.347 5.712 126.667 7.264C125.003 8.8 124.171 10.352 124.171 11.92C124.171 12.848 124.507 13.624 125.179 14.248C125.851 14.856 126.859 15.232 128.203 15.376C128.171 15.088 128.155 14.864 128.155 14.704C128.155 13.904 128.379 13.08 128.827 12.232C129.275 11.368 129.883 10.576 130.651 9.856C131.419 9.12 132.379 8.52 133.531 8.056C134.683 7.576 135.819 7.336 136.939 7.336C138.075 7.336 138.883 7.52 139.363 7.888C139.859 8.24 140.107 8.728 140.107 9.352C140.107 9.976 139.843 10.656 139.315 11.392C138.787 12.112 138.067 12.8 137.155 13.456C136.243 14.112 135.075 14.656 133.651 15.088C132.243 15.52 130.747 15.736 129.163 15.736H129.019C129.371 17.096 130.547 17.776 132.547 17.776C133.571 17.776 134.795 17.472 136.219 16.864C137.643 16.256 139.107 15.328 140.611 14.08L140.755 14.272C140.275 14.688 139.667 15.152 138.931 15.664C138.195 16.16 137.187 16.68 135.907 17.224C134.627 17.768 133.467 18.04 132.427 18.04C130.123 18.04 128.747 17.264 128.299 15.712C126.811 15.6 125.683 15.208 124.915 14.536C124.163 13.864 123.787 13.024 123.787 12.016C123.787 10.4 124.635 8.792 126.331 7.192C128.043 5.592 130.219 4.568 132.859 4.12ZM160.555 12.28C160.555 11.528 160.347 10.96 159.931 10.576C159.515 10.176 158.859 9.976 157.963 9.976C157.067 9.976 156.091 10.16 155.035 10.528C153.995 10.896 153.011 11.344 152.083 11.872C151.155 12.4 150.131 13.112 149.011 14.008C147.907 14.904 146.947 15.72 146.131 16.456C145.331 17.192 144.403 18.112 143.347 19.216C142.291 20.32 141.483 21.192 140.923 21.832C140.363 22.472 139.635 23.312 138.739 24.352C137.843 25.376 137.283 26.016 137.059 26.272L135.715 28.024C135.635 28.072 135.563 28.096 135.499 28.096C135.435 28.096 135.403 28.048 135.403 27.952L135.691 27.448C135.915 27.16 136.419 26.176 137.203 24.496L137.611 23.656C138.843 21.064 139.771 19.264 140.395 18.256C142.587 14.688 144.611 12.064 146.467 10.384C146.195 10.384 145.459 10.944 144.259 12.064L143.659 12.64C138.683 18.096 134.763 22.12 131.899 24.712C132.715 25.576 133.123 26.504 133.123 27.496C133.123 28.728 132.467 29.848 131.155 30.856C129.859 31.88 127.939 32.584 125.395 32.968V32.704C127.619 32.352 129.323 31.68 130.507 30.688C131.691 29.712 132.283 28.624 132.283 27.424C132.283 26.624 132.003 25.856 131.443 25.12C130.147 26.24 128.883 27.104 127.651 27.712C126.419 28.32 125.187 28.624 123.955 28.624C122.723 28.624 121.771 28.464 121.099 28.144C119.931 28.48 118.779 28.648 117.643 28.648C116.507 28.648 115.635 28.464 115.027 28.096C114.419 27.744 114.115 27.288 114.115 26.728C114.115 25.96 114.643 25.184 115.699 24.4C116.755 23.6 118.219 23 120.091 22.6C120.715 21.56 121.579 20.696 122.683 20.008C123.803 19.304 125.027 18.952 126.355 18.952C127.171 18.952 127.779 19.128 128.179 19.48C128.579 19.816 128.779 20.272 128.779 20.848C128.779 21.424 128.611 22.032 128.275 22.672C129.731 23.104 130.867 23.72 131.683 24.52C131.811 24.392 132.251 23.984 133.003 23.296C133.755 22.608 135.051 21.304 136.891 19.384C138.747 17.464 140.291 15.824 141.523 14.464L143.395 12.448C145.443 10.448 147.195 9.288 148.651 8.968C148.827 8.968 148.915 9.016 148.915 9.112C148.915 9.192 148.867 9.248 148.771 9.28C148.035 9.504 147.339 10.008 146.683 10.792C146.043 11.56 145.251 12.616 144.307 13.96C143.379 15.304 142.579 16.552 141.907 17.704C140.275 20.456 139.251 22.272 138.835 23.152L138.643 23.608C138.643 23.624 138.667 23.632 138.715 23.632L139.027 23.392C139.363 23.04 139.875 22.488 140.563 21.736C141.267 20.984 141.835 20.384 142.267 19.936C142.699 19.472 143.275 18.872 143.995 18.136C144.731 17.384 145.355 16.768 145.867 16.288C146.395 15.808 147.027 15.248 147.763 14.608C148.515 13.968 149.187 13.44 149.779 13.024C150.387 12.608 151.059 12.176 151.795 11.728C152.547 11.264 153.251 10.904 153.907 10.648C155.443 10.056 156.787 9.76 157.939 9.76C159.091 9.76 159.923 10.016 160.435 10.528C160.947 11.04 161.203 11.744 161.203 12.64C161.203 13.52 160.699 14.512 159.691 15.616C158.683 16.704 157.507 17.6 156.163 18.304C154.835 19.008 153.683 19.36 152.707 19.36C151.555 19.36 150.979 18.816 150.979 17.728C150.979 16.976 151.331 16.216 152.035 15.448C152.739 14.664 153.675 14.128 154.843 13.84L154.915 14.08C153.811 14.416 152.939 14.928 152.299 15.616C151.659 16.304 151.339 16.984 151.339 17.656C151.339 18.584 151.763 19.048 152.611 19.048C153.459 19.048 154.515 18.664 155.779 17.896C157.043 17.112 158.155 16.168 159.115 15.064C160.075 13.944 160.555 13.016 160.555 12.28ZM140.746 28.048C141.354 28.048 142.162 27.744 143.17 27.136C144.194 26.512 145.042 25.912 145.714 25.336C146.402 24.76 146.746 24.424 146.746 24.328C146.746 24.232 146.626 24.152 146.386 24.088C146.162 24.024 145.85 23.992 145.45 23.992C145.05 23.992 144.522 24.152 143.866 24.472C143.21 24.776 142.642 25.144 142.162 25.576C141.682 26.008 141.282 26.432 140.962 26.848C140.642 27.264 140.482 27.568 140.482 27.76C140.482 27.952 140.57 28.048 140.746 28.048ZM147.178 24.016C147.498 23.76 147.674 23.632 147.706 23.632C148.138 23.68 148.362 23.72 148.378 23.752C148.394 23.768 148.402 23.792 148.402 23.824C148.402 23.856 148.338 23.96 148.21 24.136C148.082 24.296 147.706 24.688 147.082 25.312C145.53 26.832 144.754 27.752 144.754 28.072C144.754 28.2 144.81 28.264 144.922 28.264C145.69 28.264 147.13 27.536 149.242 26.08L149.29 26.44C147.162 27.832 145.658 28.528 144.778 28.528C144.346 28.528 144.13 28.328 144.13 27.928C144.13 27.512 144.378 26.976 144.874 26.32C142.986 27.712 141.514 28.416 140.458 28.432C140.074 28.432 139.882 28.2 139.882 27.736C139.882 26.904 140.41 26.016 141.466 25.072C142.538 24.128 143.946 23.656 145.69 23.656C146.266 23.656 146.762 23.776 147.178 24.016ZM160.171 16.336C160.171 16.4 160.083 16.52 159.907 16.696C159.731 16.856 159.411 17.152 158.947 17.584C158.499 18 157.955 18.504 157.315 19.096C156.675 19.688 156.139 20.184 155.707 20.584H159.715C159.763 20.584 159.787 20.616 159.787 20.68C159.787 20.872 159.715 20.968 159.571 20.968H155.299C151.171 24.872 149.107 27.184 149.107 27.904C149.107 28.08 149.219 28.168 149.443 28.168C149.827 28.168 150.947 27.584 152.803 26.416C153.123 26.224 153.315 26.112 153.379 26.08L153.427 26.44C151.251 27.88 149.707 28.6 148.795 28.6C148.315 28.6 148.075 28.424 148.075 28.072C148.075 27.576 148.451 26.904 149.203 26.056C150.195 24.872 151.851 23.184 154.171 20.992H150.043C149.819 20.992 149.707 20.928 149.707 20.8C149.707 20.656 149.771 20.584 149.899 20.584H154.579L159.379 16.168C159.459 16.104 159.611 16.08 159.835 16.096C160.059 16.112 160.171 16.192 160.171 16.336ZM153.496 28.048C154.104 28.048 154.912 27.744 155.92 27.136C156.944 26.512 157.792 25.912 158.464 25.336C159.152 24.76 159.496 24.424 159.496 24.328C159.496 24.232 159.376 24.152 159.136 24.088C158.912 24.024 158.6 23.992 158.2 23.992C157.8 23.992 157.272 24.152 156.616 24.472C155.96 24.776 155.392 25.144 154.912 25.576C154.432 26.008 154.032 26.432 153.712 26.848C153.392 27.264 153.232 27.568 153.232 27.76C153.232 27.952 153.32 28.048 153.496 28.048ZM159.928 24.016C160.248 23.76 160.424 23.632 160.456 23.632C160.888 23.68 161.112 23.72 161.128 23.752C161.144 23.768 161.152 23.792 161.152 23.824C161.152 23.856 161.088 23.96 160.96 24.136C160.832 24.296 160.456 24.688 159.832 25.312C158.28 26.832 157.504 27.752 157.504 28.072C157.504 28.2 157.56 28.264 157.672 28.264C158.44 28.264 159.88 27.536 161.992 26.08L162.04 26.44C159.912 27.832 158.408 28.528 157.528 28.528C157.096 28.528 156.88 28.328 156.88 27.928C156.88 27.512 157.128 26.976 157.624 26.32C155.736 27.712 154.264 28.416 153.208 28.432C152.824 28.432 152.632 28.2 152.632 27.736C152.632 26.904 153.16 26.016 154.216 25.072C155.288 24.128 156.696 23.656 158.44 23.656C159.016 23.656 159.512 23.776 159.928 24.016ZM176.137 14.152C175.337 14.152 173.465 15.44 170.521 18.016C167.577 20.592 165.193 22.96 163.369 25.12C165.497 23.664 168.177 21.616 171.409 18.976C174.641 16.32 176.257 14.736 176.257 14.224C176.257 14.176 176.217 14.152 176.137 14.152ZM162.649 26.008C162.009 26.856 161.689 27.432 161.689 27.736C161.689 28.024 161.825 28.168 162.097 28.168C162.849 28.168 164.225 27.472 166.225 26.08L166.273 26.44C164.145 27.832 162.641 28.528 161.761 28.528C161.329 28.528 161.113 28.328 161.113 27.928C161.113 27.048 162.137 25.464 164.185 23.176C166.249 20.872 168.521 18.744 171.001 16.792C173.497 14.824 175.265 13.84 176.305 13.84C176.497 13.84 176.593 13.912 176.593 14.056C176.593 14.44 176.201 15.048 175.417 15.88C174.649 16.696 173.609 17.632 172.297 18.688C170.985 19.744 169.761 20.704 168.625 21.568C167.489 22.432 166.257 23.352 164.929 24.328C163.601 25.288 162.841 25.848 162.649 26.008ZM171.116 21.664C171.116 21.888 170.988 22.104 170.732 22.312C170.476 22.52 170.236 22.624 170.012 22.624C169.804 22.624 169.7 22.536 169.7 22.36C169.7 22.184 169.828 21.984 170.084 21.76C170.34 21.52 170.572 21.4 170.78 21.4C171.004 21.4 171.116 21.488 171.116 21.664ZM169.076 24.256C166.916 26.208 165.836 27.432 165.836 27.928C165.836 28.088 165.948 28.168 166.172 28.168C166.38 28.168 166.7 28.072 167.132 27.88C167.564 27.688 167.948 27.496 168.284 27.304C168.62 27.096 169.02 26.848 169.484 26.56C169.964 26.256 170.22 26.096 170.252 26.08L170.3 26.44C169.564 26.92 168.724 27.4 167.78 27.88C166.836 28.36 166.124 28.6 165.644 28.6C165.148 28.6 164.9 28.4 164.9 28C164.9 27.664 165.188 27.16 165.764 26.488C166.34 25.8 166.916 25.2 167.492 24.688L168.356 23.92C168.436 23.856 168.588 23.832 168.812 23.848C169.036 23.864 169.148 23.944 169.148 24.088C169.148 24.152 169.124 24.208 169.076 24.256ZM170.371 28.048C170.979 28.048 171.787 27.744 172.795 27.136C173.819 26.512 174.667 25.912 175.339 25.336C176.027 24.76 176.371 24.424 176.371 24.328C176.371 24.232 176.251 24.152 176.011 24.088C175.787 24.024 175.475 23.992 175.075 23.992C174.675 23.992 174.147 24.152 173.491 24.472C172.835 24.776 172.267 25.144 171.787 25.576C171.307 26.008 170.907 26.432 170.587 26.848C170.267 27.264 170.107 27.568 170.107 27.76C170.107 27.952 170.195 28.048 170.371 28.048ZM176.803 24.016C177.123 23.76 177.299 23.632 177.331 23.632C177.763 23.68 177.987 23.72 178.003 23.752C178.019 23.768 178.027 23.792 178.027 23.824C178.027 23.856 177.963 23.96 177.835 24.136C177.707 24.296 177.331 24.688 176.707 25.312C175.155 26.832 174.379 27.752 174.379 28.072C174.379 28.2 174.435 28.264 174.547 28.264C175.315 28.264 176.755 27.536 178.867 26.08L178.915 26.44C176.787 27.832 175.283 28.528 174.403 28.528C173.971 28.528 173.755 28.328 173.755 27.928C173.755 27.512 174.003 26.976 174.499 26.32C172.611 27.712 171.139 28.416 170.083 28.432C169.699 28.432 169.507 28.2 169.507 27.736C169.507 26.904 170.035 26.016 171.091 25.072C172.163 24.128 173.571 23.656 175.315 23.656C175.891 23.656 176.387 23.776 176.803 24.016Z" fill="white"/>
</svg>
